# xmcd
#
# Track frame offsets: 
#        150
#        17283
#        20390
#        40222
#        62850
#        86552
#        108007
#        134755
#        151946
#        169500
#        188098
#        209533
#        229742
#        256782
#        279203
#
# Disc length: 4200 seconds
#
# Revision: 0
# Processed by: cddbd v1.5.2PL0 Copyright (c) Steve Scherf et al.
# Submitted via: ExactAudioCopy v1.3
#
DISCID=b910660f
DTITLE=John Baldwin - Wide Alive And Dreaming
DYEAR=2019
DGENRE=Blues Rock
TTITLE0=Mistreated
TTITLE1=Six String Slinger
TTITLE2=Redemption Blues
TTITLE3=Nothing Without Your Love
TTITLE4=Make A Wish
TTITLE5=Angel
TTITLE6=Somewhere Down The Road
TTITLE7=I've Been Down
TTITLE8=Frazzled
TTITLE9=Tempted
TTITLE10=Perfect World
TTITLE11=Baby I Believe In You
TTITLE12=Higher And Higher
TTITLE13=Wide Alive And Dreaming
TTITLE14=Shades Of You
EXTD=
EXTT0=
EXTT1=
EXTT2=
EXTT3=
EXTT4=
EXTT5=
EXTT6=
EXTT7=
EXTT8=
EXTT9=
EXTT10=
EXTT11=
EXTT12=
EXTT13=
EXTT14=
PLAYORDER=
